PathFileType	4	(X/Y/Z)	Patient4_TMGait_0pt5_01_left_05.trc.trc
DataRate	CameraRate	NumFrames	NumMarkers	Units	OrigDataRate	OrigDataStartFrame	OrigNumFrames
71.065989847716	71.065989847716	5	33	mm	71.065989847716	53	       141
Frame#	Time	L.ASIS			Sacral			L.Shoulder			Chest			R.Shoulder			Neck			R.ASIS			R.Thigh.Superior			R.Thigh.Lateral			R.Thigh.Inferior			R.Patella			L.Thigh.Superior			L.Thigh.Lateral			L.Thigh.Inferior			L.Patella			L.Shank.Superior			L.Shank.Lateral			L.Shank.Inferior			R.Shank.Superior			R.Shank.Lateral			R.Shank.Inferior			R.Heel			R.Midfoot.Superior			R.Midfoot.Lateral			R.Toe			L.Heel			L.Midfoot.Lateral			L.Midfoot.Superior			L.Toe			L.Elbow			L.Wrist			R.Elbow			R.Wrist			
		X1	Y1	Z1	X2	Y2	Z2	X3	Y3	Z3	X4	Y4	Z4	X5	Y5	Z5	X6	Y6	Z6	X7	Y7	Z7	X8	Y8	Z8	X9	Y9	Z9	X10	Y10	Z10	X11	Y11	Z11	X12	Y12	Z12	X13	Y13	Z13	X14	Y14	Z14	X15	Y15	Z15	X16	Y16	Z16	X17	Y17	Z17	X18	Y18	Z18	X19	Y19	Z19	X20	Y20	Z20	X21	Y21	Z21	X22	Y22	Z22	X23	Y23	Z23	X24	Y24	Z24	X25	Y25	Z25	X26	Y26	Z26	X27	Y27	Z27	X28	Y28	Z28	X29	Y29	Z29	X30	Y30	Z30	X31	Y31	Z31	X32	Y32	Z32	X33	Y33	Z33	

53	7.301714285714	732.438430432568	965.127503566774	304.009869518050	514.386951118436	1002.643007684713	461.560778645664	683.000453349046	1438.311489167847	286.250012082607	784.600606292328	1367.487186237290	448.055103833871	695.782905445141	1437.738803389864	622.213696566638	683.106179455538	1497.668842812105	437.720406192497	742.911071465427	942.948532553982	578.271146501235	825.355682133869	769.140915628478	545.624769891924	782.923120035469	647.699502061915	612.929123571234	872.049935652947	608.636380254492	531.803689891861	887.729307536875	492.910870354020	551.612573529173	786.854173221233	753.368546101026	339.452740417271	702.547660721352	636.083368281378	281.242139414704	782.276633569446	560.142770114517	351.380466654096	781.774312615737	489.453339705205	364.209656449463	755.940844270887	416.896199513332	354.728144595745	670.946798272558	302.315450983141	298.980900407711	713.363940873129	192.599352545459	376.361569528010	806.907932244895	421.901079886742	558.599220008535	681.070470746318	389.413374783072	612.742262421906	663.777792787086	280.138628614397	567.425929687623	466.270063265548	241.346180460469	523.520899522736	615.917008956768	155.786783099820	585.084548873383	506.741372144042	180.190094869456	607.525788297987	654.884408955582	36.146704782491	629.817692999110	580.001069569471	37.102556425080	409.804523367763	658.510734087947	35.066503986133	333.034106946120	739.886002691043	96.124427305302	364.645967562690	869.629507711933	45.179580897317	343.173056044895	647.478971204661	1089.945636901384	153.113659555003	791.423814486555	871.062151358426	162.685462106748	621.125806324279	1095.593832775683	727.414237318511	655.841114683375	835.504407020957	728.167338297730	
54	7.315785714286	732.495274879744	965.632881842184	303.533595504633	513.673846374363	1003.143213625526	459.902988842064	684.355339346433	1439.168624307112	286.032237588857	784.344970772064	1367.887429591867	448.615542402966	694.176326807635	1437.828284100449	622.205041838355	683.217522419226	1498.232570994501	437.698217835551	741.625174594969	943.906909073455	577.872913440681	826.580282971768	772.954641701523	544.062626482687	786.942989292985	650.746822123655	611.269917238290	876.137713674141	613.361439477783	529.454691120611	894.340142047595	498.033113731717	549.247773475367	784.892257400525	752.545540222530	338.924691735004	699.260660568140	636.044940648677	280.735814221132	777.975103158014	559.332205150259	351.048644478314	776.689878839398	488.747083425847	364.097063220590	750.627101223137	416.495958151612	354.543856531977	665.225444668294	302.257614982099	298.732011888674	706.906070411090	192.411766541062	376.266746850130	815.444375938638	425.063902699515	556.584787157213	690.653636514449	388.728697318613	610.820704851424	676.613241677930	278.878402065457	565.652232755146	479.848217211884	232.775524550341	522.430692457164	633.077666488460	153.682945699106	583.296729700467	523.259739094946	173.668937069839	606.340305595875	676.992898025240	35.933688521773	628.121822348117	572.886213850899	37.179769519776	409.757056790650	651.443951325839	35.089695409001	333.008833130701	732.902431188308	96.072497019099	364.633542854288	862.606307271443	44.873276592138	343.169660765575	651.200623105061	1091.036293858349	151.676916327317	802.582027937298	877.412084804834	163.231580343385	611.558652609283	1097.414314830972	725.656879261427	633.595336042382	835.921286144142	727.636824338760	
55	7.329857142857	732.523346873429	966.113206549246	303.246728458819	512.974923024064	1003.680971710655	458.387648366706	685.806981606330	1439.972767053909	285.915671469640	784.120064542176	1368.279432810391	449.312645452965	692.585253230646	1438.014717192749	622.292489316168	683.353140880933	1498.778901100752	437.741392481287	740.354867512648	944.859639650534	577.639369919698	827.400598353310	776.462673020329	542.617362921240	790.288877664067	653.587178594630	609.822986873458	879.300441735001	617.605923651115	527.293551156072	899.876506459185	502.967216149199	547.182348899777	782.797023184532	751.700161310752	338.600840482234	695.851380552969	636.045512994849	280.291255249051	773.480872663082	558.537187494046	350.803291108897	771.375411494007	488.055610648242	364.031023812425	745.141176077302	416.129546346045	354.384661580674	659.374000086101	302.207347044196	298.511177908702	700.384430860720	192.246296808460	376.176550787066	823.441251478136	427.832351858529	554.874133642261	700.269021208629	386.736924563387	609.432557500438	690.171201733425	276.402711293197	564.243885408819	494.632971407356	221.522504222825	522.128348495537	651.980029999910	150.365324348502	581.899789055530	541.579316182057	164.918624050100	605.785911002829	701.875188778539	35.273725784408	626.523002819167	565.773514856336	37.257436307528	409.714197511825	644.375397220896	35.112113502367	332.991720644461	725.919846573655	96.016864368721	364.623467693730	855.582223372153	44.547658122828	343.176526229275	655.021445274135	1092.110947015920	150.419844597326	813.730468856983	884.110934223384	163.930240549570	602.129314693633	1099.611032493405	724.203107299441	612.868202370021	837.558700633068	727.034085810927	
56	7.343928571429	732.506025969924	966.537685703369	303.135016928757	512.286532629478	1004.222086871520	457.017139313644	687.317650861858	1440.684167740850	285.900714332117	783.924342155551	1368.625956834358	450.126480106079	691.041581827875	1438.256592512353	622.470537020136	683.521944840764	1499.272972857614	437.847168760032	739.101890207037	945.753189679688	577.556015768888	827.803945632035	779.535185165468	541.316754480932	792.876477556652	656.107531668991	608.647868700482	881.473297276253	621.209531256113	525.405747421022	904.246001283993	507.585274006654	545.490338958233	780.592263827085	750.837290763774	338.456796966748	692.353432752922	636.070693657719	279.893727456625	768.842254470041	557.757378383572	350.619075203765	765.889022643938	487.378745559215	363.988197823118	739.531209154293	415.783567752696	354.238728822657	653.426540383834	302.158888835304	298.309295104994	693.818201085739	192.093988703038	376.089957602211	830.817063898568	430.162961136260	553.527851108600	709.937326225149	383.508139291373	608.623881559633	704.451007843282	272.878055492027	563.244728395254	510.898758020084	207.979851439431	522.558154078155	672.561371943618	146.108343638698	580.948710684730	561.779405189857	154.353824749796	605.836745889506	729.198833386140	34.390667527421	625.094292702737	558.669497698367	37.332050815348	409.673116888487	637.307070329770	35.132283964713	332.982155024609	718.937146701225	95.959141838988	364.616675639659	848.559573791798	44.213820944428	343.190694577777	658.976489062692	1093.123215052505	149.329462377169	824.856516296176	891.094079877480	164.759480967777	592.884388428808	1102.114810192235	723.028509165021	593.732895890545	840.126405586590	726.446769993002	
57	7.358000000000	732.434179590021	966.879661679872	303.182460690478	511.607648140721	1004.735626671542	455.794014532483	688.847351095530	1441.270928990588	285.989924284484	783.757093043130	1368.893366961019	451.036934344460	689.579577128515	1438.509197279919	622.733674462231	683.732336348714	1499.684416025039	438.017692785313	737.865048479946	946.537717420793	577.609662303782	827.767196003819	782.042886390659	540.211545498377	794.594271151482	658.201547615746	607.806288289734	882.583337705246	624.030663523995	523.888450992946	907.353015963490	511.773571401971	544.234244842073	778.300187507274	749.959296345964	338.464700487415	688.793298663716	636.106123745335	279.531862646700	764.099339103546	556.989504280669	350.473088718904	760.282529970718	486.716286486765	363.947484627893	733.837467596865	415.445656045081	354.096273414170	647.409681410592	302.106774610218	298.119931865659	687.222398163412	191.946399957778	376.007295280518	837.478220538737	432.044909707121	552.594663020076	719.666223233436	379.174904739931	608.418980068740	719.424406712364	268.539513705217	562.678846174559	528.889543202205	192.617190701708	523.635217695134	694.725268596630	141.263698481678	580.460909395238	583.916553452242	142.463888352413	606.432013071755	758.602226177922	33.616515124227	623.865733179418	551.578233934481	37.399948753676	409.631329226633	630.239578696713	35.148235028478	332.979429213000	711.951618006608	95.900554002071	364.613872209481	841.539152991000	43.884182389414	343.208598619736	663.091709097985	1094.033486640195	148.400252806681	835.942627598124	898.299556202477	165.701600818288	583.893695037023	1104.842673968637	722.099682040841	576.221630196500	843.332111349541	725.948200358551	
